<?xml version="1.0" encoding="UTF-8" standalone="no"?>
<!DOCTYPE svg PUBLIC "-//W3C//DTD SVG 1.1//EN" "http://www.w3.org/Graphics/SVG/1.1/DTD/svg11.dtd">
<svg xmlns="http://www.w3.org/2000/svg" version="1.1" viewBox="0.00 0.00 399.00 99.00">
<path fill="#ffffff" d="
  M 307.73 26.97
  A 23.66 23.66 0.0 0 1 284.07 50.63
  A 23.66 23.66 0.0 0 1 260.41 26.97
  A 23.66 23.66 0.0 0 1 284.07 3.31
  A 23.66 23.66 0.0 0 1 307.73 26.97
  Z
  M 303.13 27.01
  A 19.07 19.07 0.0 0 0 284.06 7.94
  A 19.07 19.07 0.0 0 0 264.99 27.01
  A 19.07 19.07 0.0 0 0 284.06 46.08
  A 19.07 19.07 0.0 0 0 303.13 27.01
  Z"
/>
<path fill="#ffffff" d="
  M 24.69 45.67
  C 32.54 42.30 30.01 34.90 24.81 30.58
  C 20.76 27.21 13.60 22.16 11.85 17.40
  C 9.67 11.46 12.80 5.69 18.85 4.01
  C 24.48 2.45 30.47 5.32 33.55 10.32
  Q 33.91 10.90 33.38 11.32
  L 30.82 13.36
  Q 30.30 13.77 29.87 13.27
  C 26.68 9.58 21.34 4.70 17.08 10.59
  C 13.61 15.39 18.41 20.03 22.95 22.55
  C 26.68 24.61 32.95 31.08 34.18 35.28
  C 37.10 45.22 26.65 52.66 17.78 49.83
  Q 11.59 47.85 8.95 41.84
  Q 8.55 40.94 9.37 40.38
  L 11.29 39.05
  Q 12.15 38.45 12.68 39.36
  Q 18.02 48.53 24.69 45.67
  Z"
/>
<path fill="#ffffff" d="
  M 86.38 14.93
  L 70.18 49.18
  A 0.37 0.37 0.0 0 1 69.84 49.39
  L 65.56 49.37
  A 0.37 0.37 0.0 0 1 65.23 48.84
  L 86.38 4.07
  A 0.37 0.37 0.0 0 1 87.05 4.07
  L 107.97 48.86
  A 0.37 0.37 0.0 0 1 107.64 49.39
  L 103.52 49.37
  A 0.37 0.37 0.0 0 1 103.19 49.16
  L 87.04 14.93
  A 0.37 0.37 0.0 0 0 86.38 14.93
  Z"
/>
<path fill="#ffffff" d="
  M 144.52 16.62
  L 144.54 48.92
  A 0.46 0.46 0.0 0 1 144.06 49.38
  L 140.56 49.25
  A 0.46 0.46 0.0 0 1 140.12 48.79
  L 140.11 4.78
  A 0.46 0.46 0.0 0 1 140.92 4.48
  L 169.88 37.74
  A 0.46 0.46 0.0 0 0 170.69 37.44
  L 170.71 5.16
  A 0.46 0.46 0.0 0 1 171.17 4.70
  L 174.76 4.72
  A 0.46 0.46 0.0 0 1 175.22 5.18
  L 175.21 49.30
  A 0.46 0.46 0.0 0 1 174.40 49.61
  L 145.33 16.31
  A 0.46 0.46 0.0 0 0 144.52 16.62
  Z"
/>
<path fill="#ffffff" d="
  M 221.14 9.41
  L 221.12 48.99
  A 0.41 0.41 0.0 0 1 220.69 49.40
  L 217.15 49.27
  A 0.41 0.41 0.0 0 1 216.76 48.86
  L 216.73 9.42
  A 0.41 0.41 0.0 0 0 216.32 9.01
  L 207.09 8.99
  A 0.41 0.41 0.0 0 1 206.68 8.58
  L 206.67 5.07
  A 0.41 0.41 0.0 0 1 207.08 4.66
  L 230.72 4.73
  A 0.41 0.41 0.0 0 1 231.13 5.14
  L 231.13 8.59
  A 0.41 0.41 0.0 0 1 230.72 9.00
  L 221.55 9.00
  A 0.41 0.41 0.0 0 0 221.14 9.41
  Z"
/>
<path fill="#ffffff" d="
  M 380.64 18.53
  L 365.12 49.89
  A 0.40 0.40 0.0 0 1 364.40 49.88
  L 348.79 18.29
  A 0.40 0.40 0.0 0 0 348.03 18.41
  L 343.84 48.93
  A 0.40 0.40 0.0 0 1 343.44 49.28
  L 339.98 49.28
  A 0.40 0.40 0.0 0 1 339.58 48.82
  L 345.78 4.44
  A 0.40 0.40 0.0 0 1 346.54 4.32
  L 364.45 40.45
  A 0.40 0.40 0.0 0 0 365.17 40.45
  L 382.79 4.59
  A 0.40 0.40 0.0 0 1 383.55 4.71
  L 389.97 49.06
  A 0.40 0.40 0.0 0 1 389.54 49.52
  L 385.82 49.23
  A 0.40 0.40 0.0 0 1 385.46 48.88
  L 381.39 18.66
  A 0.40 0.40 0.0 0 0 380.64 18.53
  Z"
/>
<path fill="#ffffff" d="
  M 220.57 90.92
  Q 228.58 94.92 235.72 88.25
  Q 236.24 87.76 236.78 88.22
  L 237.76 89.04
  A 0.64 0.63 -48.3 0 1 237.81 89.96
  Q 231.61 96.57 222.99 94.76
  C 209.94 92.03 206.90 73.77 219.23 67.91
  C 225.70 64.84 232.88 65.86 237.75 71.20
  A 0.98 0.98 0.0 0 1 237.67 72.60
  L 237.46 72.79
  Q 236.52 73.62 235.58 72.79
  Q 228.25 66.33 220.55 70.27
  C 212.47 74.41 212.34 86.81 220.57 90.92
  Z"
/>
<path fill="#ffffff" d="
  M 106.16 70.22
  L 106.11 93.55
  A 0.58 0.58 0.0 0 1 105.53 94.13
  L 103.83 94.13
  A 0.58 0.58 0.0 0 1 103.25 93.55
  L 103.24 70.13
  A 0.58 0.58 0.0 0 0 102.67 69.56
  L 97.82 69.51
  A 0.58 0.58 0.0 0 1 97.25 68.99
  L 97.10 67.52
  A 0.58 0.58 0.0 0 1 97.67 66.88
  L 111.62 66.84
  A 0.58 0.58 0.0 0 1 112.20 67.46
  L 112.10 68.97
  A 0.58 0.58 0.0 0 1 111.54 69.51
  L 106.72 69.64
  A 0.58 0.58 0.0 0 0 106.16 70.22
  Z"
/>
<path fill="#ffffff" d="
  M 163.31 79.21
  Q 166.05 77.50 169.36 78.40
  A 1.15 1.15 0.0 0 1 169.10 80.66
  L 157.46 81.07
  Q 157.00 81.09 157.00 81.55
  L 157.00 90.84
  A 0.60 0.59 -90.0 0 0 157.59 91.44
  L 168.81 91.53
  A 0.97 0.96 -5.4 0 1 169.76 92.31
  L 169.87 92.88
  Q 170.07 93.94 168.99 93.97
  L 154.83 94.28
  Q 154.24 94.29 154.24 93.70
  L 154.21 67.40
  A 0.63 0.63 0.0 0 1 154.85 66.77
  L 169.47 66.93
  A 0.54 0.53 -90.0 0 1 170.00 67.47
  L 170.00 68.71
  Q 169.99 69.41 169.29 69.44
  L 158.17 69.85
  Q 157.00 69.90 157.00 71.08
  L 157.01 76.74
  Q 157.01 77.97 158.24 77.99
  L 161.31 78.03
  A 0.98 0.96 -16.1 0 1 162.10 78.46
  L 162.50 79.04
  Q 162.82 79.52 163.31 79.21
  Z"
/>
<path fill="#ffffff" d="
  M 284.39 81.44
  L 284.13 93.74
  A 0.45 0.45 0.0 0 1 283.65 94.18
  L 282.42 94.10
  A 0.45 0.45 0.0 0 1 282.00 93.65
  L 281.80 67.18
  A 0.45 0.45 0.0 0 1 282.26 66.73
  L 283.79 66.75
  A 0.45 0.45 0.0 0 1 284.23 67.19
  L 284.41 77.80
  A 0.45 0.45 0.0 0 0 284.86 78.24
  L 298.04 78.25
  A 0.45 0.45 0.0 0 0 298.49 77.80
  L 298.41 67.22
  A 0.45 0.45 0.0 0 1 298.86 66.77
  L 300.72 66.74
  A 0.45 0.45 0.0 0 1 301.17 67.19
  L 301.17 93.70
  A 0.45 0.45 0.0 0 1 300.71 94.15
  L 298.96 94.10
  A 0.45 0.45 0.0 0 1 298.53 93.66
  L 298.40 81.45
  A 0.45 0.45 0.0 0 0 297.95 81.00
  L 284.84 81.00
  A 0.45 0.45 0.0 0 0 284.39 81.44
  Z"
/>
</svg>
