<?xml version="1.0" encoding="UTF-8" standalone="no"?>
<!DOCTYPE svg PUBLIC "-//W3C//DTD SVG 1.1//EN" "http://www.w3.org/Graphics/SVG/1.1/DTD/svg11.dtd">
<svg xmlns="http://www.w3.org/2000/svg" version="1.1" viewBox="0.00 0.00 174.00 177.00">
<path fill="#f8fdfd" d="
  M 75.36 16.33
  L 88.01 3.25
  Q 88.66 2.59 89.32 3.24
  Q 116.53 29.99 143.95 56.77
  C 149.31 62.01 154.29 65.58 160.55 68.74
  A 1.05 1.05 0.0 0 1 160.97 70.23
  L 156.60 77.30
  Q 156.29 77.80 156.71 78.21
  L 169.53 90.73
  Q 169.96 91.15 169.54 91.59
  Q 142.05 119.62 114.65 147.61
  C 110.81 151.52 108.55 155.91 105.89 160.56
  Q 105.56 161.13 105.03 160.74
  L 104.20 160.13
  Q 103.71 159.76 103.28 160.20
  L 90.60 173.05
  Q 90.18 173.48 89.75 173.06
  Q 64.72 148.61 39.86 124.12
  Q 33.17 117.52 27.87 113.81
  Q 21.32 109.22 14.20 105.49
  A 0.54 0.54 0.0 0 1 13.99 104.72
  L 17.95 98.54
  A 0.69 0.67 -51.7 0 0 17.86 97.69
  L 5.09 85.20
  Q 4.73 84.84 5.09 84.48
  Q 30.38 58.62 55.69 32.82
  C 61.57 26.82 65.43 21.25 69.29 14.26
  A 0.89 0.89 0.0 0 1 70.54 13.93
  L 74.59 16.42
  Q 75.01 16.68 75.36 16.33
  Z
  M 77.57 17.72
  A 0.33 0.33 0.0 0 0 77.63 18.24
  L 136.76 54.37
  A 0.33 0.33 0.0 0 0 137.17 53.85
  L 88.87 6.56
  A 0.33 0.33 0.0 0 0 88.40 6.57
  L 77.57 17.72
  Z
  M 41.70 79.52
  A 0.15 0.15 0.0 0 0 41.93 79.70
  L 89.10 34.97
  A 0.15 0.15 0.0 0 1 89.27 34.94
  L 132.36 55.69
  A 0.15 0.15 0.0 0 0 132.56 55.62
  L 132.70 55.36
  A 0.15 0.15 0.0 0 0 132.65 55.16
  L 70.88 17.48
  A 0.15 0.15 0.0 0 0 70.67 17.54
  L 41.70 79.52
  Z
  M 53.43 39.00
  C 38.53 53.71 23.71 69.03 8.92 84.42
  Q 8.46 84.90 8.94 85.37
  L 19.06 95.24
  A 0.57 0.57 0.0 0 0 19.94 95.13
  L 53.95 39.42
  Q 55.39 37.06 53.43 39.00
  Z
  M 88.70 52.08
  L 126.27 78.73
  A 0.19 0.19 0.0 0 0 126.52 78.44
  L 89.16 38.96
  A 0.33 0.33 0.0 0 0 88.65 39.00
  L 63.92 74.46
  A 0.25 0.25 0.0 0 0 64.30 74.79
  L 88.14 52.12
  A 0.45 0.44 40.5 0 1 88.70 52.08
  Z
  M 35.93 86.38
  A 0.49 0.47 36.7 0 1 35.84 85.83
  L 57.42 39.86
  Q 57.43 39.85 57.27 39.77
  L 57.26 39.76
  Q 57.11 39.68 57.03 39.83
  L 18.08 103.64
  Q 17.79 104.11 18.29 104.34
  L 79.28 132.88
  A 0.28 0.27 80.4 0 0 79.59 132.44
  L 35.93 86.38
  Z
  M 94.14 40.12
  A 0.13 0.13 0.0 0 0 93.99 40.33
  L 139.44 88.18
  A 0.13 0.13 0.0 0 1 139.46 88.33
  L 114.06 140.44
  A 0.13 0.13 0.0 0 0 114.12 140.61
  L 114.35 140.73
  A 0.13 0.13 0.0 0 0 114.52 140.69
  L 157.41 70.49
  A 0.13 0.13 0.0 0 0 157.36 70.31
  L 94.14 40.12
  Z
  M 52.58 85.99
  L 77.73 50.18
  A 0.33 0.33 0.0 0 0 77.23 49.75
  L 39.95 85.21
  A 0.64 0.63 41.2 0 0 40.02 86.18
  L 71.82 108.89
  Q 76.60 112.30 72.62 107.99
  Q 62.80 97.35 52.66 86.96
  Q 52.22 86.51 52.58 85.99
  Z
  M 88.7789 55.7330
  A 0.44 0.44 0.0 0 0 88.1569 55.7167
  L 56.1534 86.0869
  A 0.44 0.44 0.0 0 0 56.1371 86.7090
  L 86.5211 118.7270
  A 0.44 0.44 0.0 0 0 87.1431 118.7433
  L 119.1466 88.3731
  A 0.44 0.44 0.0 0 0 119.1629 87.7510
  L 88.7789 55.7330
  Z
  M 122.64 88.50
  L 96.32 125.63
  A 0.26 0.26 0.0 0 0 96.71 125.97
  L 135.51 89.11
  Q 135.93 88.71 135.46 88.38
  L 100.39 63.61
  A 0.25 0.25 0.0 0 0 100.07 63.98
  L 122.57 87.54
  Q 123.01 87.99 122.64 88.50
  Z
  M 119.48 138.00
  A 0.30 0.30 0.0 0 0 119.95 138.37
  L 166.04 91.40
  A 0.30 0.30 0.0 0 0 166.04 90.98
  L 155.23 80.28
  A 0.30 0.30 0.0 0 0 154.76 80.33
  L 119.48 138.00
  Z
  M 86.91 122.43
  A 0.21 0.21 0.0 0 1 86.64 122.45
  L 48.80 95.62
  A 0.21 0.21 0.0 0 0 48.52 95.94
  L 85.99 135.32
  A 0.21 0.21 0.0 0 0 86.32 135.29
  L 110.91 100.57
  A 0.21 0.21 0.0 0 0 110.87 100.29
  L 110.58 100.04
  A 0.21 0.21 0.0 0 0 110.30 100.05
  L 86.91 122.43
  Z
  M 86.75 138.96
  A 0.39 0.38 -53.2 0 1 86.31 139.03
  Q 63.63 128.49 40.93 117.67
  Q 40.91 117.66 40.90 117.68
  L 40.77 117.93
  Q 40.67 118.12 40.85 118.23
  L 103.53 156.48
  Q 104.02 156.78 104.26 156.26
  Q 117.80 125.77 132.88 96.00
  A 0.30 0.30 0.0 0 0 132.41 95.65
  L 86.75 138.96
  Z
  M 100.81 158.20
  L 42.51 122.57
  A 0.20 0.20 0.0 0 0 42.26 122.89
  L 89.01 168.68
  Q 90.19 169.84 91.34 168.65
  L 100.86 158.82
  A 0.41 0.38 -51.6 0 0 100.81 158.20
  Z"
/>
<rect fill="#f8fdfd" x="-14.04" y="-14.04" transform="translate(87.62,87.23) rotate(-43.5)" width="28.08" height="28.08" rx="0.49"/>
</svg>
