<?xml version="1.0" encoding="UTF-8" standalone="no"?>
<!DOCTYPE svg PUBLIC "-//W3C//DTD SVG 1.1//EN" "http://www.w3.org/Graphics/SVG/1.1/DTD/svg11.dtd">
<svg xmlns="http://www.w3.org/2000/svg" version="1.1" viewBox="0.00 0.00 399.00 289.00">
<path fill="#ffffff" d="
  M 182.36 17.33
  L 195.13 4.13
  A 0.74 0.74 0.0 0 1 196.18 4.12
  Q 224.32 31.71 252.71 59.55
  Q 258.55 65.27 267.96 69.92
  A 0.60 0.60 0.0 0 1 268.21 70.77
  L 263.85 77.93
  A 1.30 1.30 0.0 0 0 264.05 79.55
  L 276.50 91.70
  A 0.66 0.66 0.0 0 1 276.51 92.63
  Q 249.04 120.60 221.48 148.78
  C 217.73 152.63 215.52 156.98 212.89 161.54
  Q 212.57 162.09 212.05 161.73
  L 211.15 161.13
  Q 210.67 160.80 210.26 161.22
  L 197.60 174.05
  Q 197.18 174.48 196.75 174.06
  Q 171.72 149.61 146.86 125.12
  Q 140.16 118.52 134.87 114.80
  Q 128.32 110.21 121.20 106.49
  A 0.54 0.54 0.0 0 1 120.99 105.72
  L 124.95 99.54
  A 0.69 0.69 0.0 0 0 124.86 98.68
  L 112.09 86.19
  Q 111.73 85.84 112.09 85.48
  Q 137.37 59.63 162.67 33.84
  C 168.57 27.82 172.43 22.25 176.30 15.25
  A 0.87 0.87 0.0 0 1 177.52 14.93
  L 181.60 17.42
  Q 182.02 17.68 182.36 17.33
  Z
  M 184.57 18.72
  A 0.33 0.33 0.0 0 0 184.63 19.24
  L 243.76 55.37
  A 0.33 0.33 0.0 0 0 244.17 54.85
  L 195.87 7.55
  A 0.33 0.33 0.0 0 0 195.40 7.56
  L 184.57 18.72
  Z
  M 148.69 80.52
  A 0.15 0.15 0.0 0 0 148.92 80.70
  L 196.10 35.97
  A 0.15 0.15 0.0 0 1 196.27 35.94
  L 239.41 56.71
  A 0.15 0.15 0.0 0 0 239.61 56.65
  L 239.76 56.40
  A 0.15 0.15 0.0 0 0 239.70 56.19
  L 177.88 18.48
  A 0.15 0.15 0.0 0 0 177.67 18.54
  L 148.69 80.52
  Z
  M 160.41 40.03
  C 145.52 54.70 130.70 70.04 115.92 85.42
  Q 115.46 85.90 115.94 86.37
  L 126.00 96.18
  A 0.63 0.63 0.0 0 0 126.98 96.06
  L 160.94 40.45
  Q 162.38 38.09 160.41 40.03
  Z
  M 195.70 53.08
  L 233.26 79.73
  A 0.20 0.20 0.0 0 0 233.52 79.43
  L 196.17 39.97
  A 0.34 0.34 0.0 0 0 195.64 40.01
  L 171.05 75.27
  A 0.28 0.28 0.0 0 0 171.47 75.64
  L 195.14 53.12
  A 0.45 0.44 40.5 0 1 195.70 53.08
  Z
  M 187.15 134.28
  A 0.09 0.09 0.0 0 0 187.25 134.14
  L 142.74 87.17
  A 0.09 0.09 0.0 0 1 142.73 87.07
  L 164.38 40.94
  A 0.09 0.09 0.0 0 0 164.35 40.82
  L 164.19 40.73
  A 0.09 0.09 0.0 0 0 164.07 40.76
  L 124.84 105.02
  A 0.09 0.09 0.0 0 0 124.88 105.15
  L 187.15 134.28
  Z
  M 201.17 41.15
  A 0.14 0.14 0.0 0 0 201.01 41.37
  L 246.43 89.17
  A 0.14 0.14 0.0 0 1 246.46 89.33
  L 221.07 141.43
  A 0.14 0.14 0.0 0 0 221.13 141.61
  L 221.35 141.73
  A 0.14 0.14 0.0 0 0 221.54 141.68
  L 264.41 71.50
  A 0.14 0.14 0.0 0 0 264.35 71.30
  L 201.17 41.15
  Z
  M 159.58 86.99
  L 182.89 53.82
  Q 186.76 48.32 181.89 52.95
  L 146.85 86.32
  A 0.50 0.50 0.0 0 0 146.90 87.09
  L 178.81 109.89
  Q 183.60 113.31 179.61 108.98
  Q 169.80 98.34 159.66 87.96
  Q 159.21 87.50 159.58 86.99
  Z
  M 195.7789 56.7330
  A 0.44 0.44 0.0 0 0 195.1569 56.7167
  L 163.1534 87.0869
  A 0.44 0.44 0.0 0 0 163.1371 87.7090
  L 193.5211 119.7270
  A 0.44 0.44 0.0 0 0 194.1431 119.7433
  L 226.1466 89.3731
  A 0.44 0.44 0.0 0 0 226.1629 88.7510
  L 195.7789 56.7330
  Z
  M 229.64 89.51
  L 203.32 126.63
  A 0.26 0.26 0.0 0 0 203.71 126.97
  L 242.51 90.11
  Q 242.93 89.71 242.46 89.37
  L 207.38 64.60
  A 0.25 0.25 0.0 0 0 207.06 64.98
  L 229.57 88.54
  Q 230.00 89.00 229.64 89.51
  Z
  M 226.52 138.95
  A 0.31 0.31 0.0 0 0 227.01 139.33
  L 273.03 92.41
  A 0.31 0.31 0.0 0 0 273.03 91.97
  L 262.24 81.29
  A 0.31 0.31 0.0 0 0 261.76 81.34
  L 226.52 138.95
  Z
  M 193.91 123.42
  A 0.22 0.22 0.0 0 1 193.63 123.44
  L 155.87 96.67
  A 0.22 0.22 0.0 0 0 155.58 97.00
  L 193.00 136.32
  A 0.22 0.22 0.0 0 0 193.33 136.29
  L 217.81 101.69
  A 0.22 0.22 0.0 0 0 217.78 101.40
  L 217.48 101.15
  A 0.22 0.22 0.0 0 0 217.19 101.16
  L 193.91 123.42
  Z
  M 193.59 140.11
  A 0.12 0.12 0.0 0 1 193.46 140.14
  L 147.97 118.77
  A 0.12 0.12 0.0 0 0 147.82 118.82
  L 147.71 119.01
  A 0.12 0.12 0.0 0 0 147.76 119.17
  L 210.66 157.56
  A 0.12 0.12 0.0 0 0 210.83 157.51
  L 239.73 96.66
  A 0.12 0.12 0.0 0 0 239.54 96.52
  L 193.59 140.11
  Z
  M 207.63 159.08
  L 149.55 123.60
  A 0.21 0.21 0.0 0 0 149.30 123.93
  L 196.75 170.40
  A 0.57 0.56 44.3 0 0 197.55 170.40
  L 207.74 159.99
  Q 208.25 159.46 207.63 159.08
  Z"
/>
<rect fill="#ffffff" x="-14.04" y="-14.04" transform="translate(194.62,88.23) rotate(-43.5)" width="28.08" height="28.08" rx="0.51"/>
<path fill="#ffffff" d="
  M 307.73 214.97
  A 23.66 23.66 0.0 0 1 284.07 238.63
  A 23.66 23.66 0.0 0 1 260.41 214.97
  A 23.66 23.66 0.0 0 1 284.07 191.31
  A 23.66 23.66 0.0 0 1 307.73 214.97
  Z
  M 303.13 215.01
  A 19.07 19.07 0.0 0 0 284.06 195.94
  A 19.07 19.07 0.0 0 0 264.99 215.01
  A 19.07 19.07 0.0 0 0 284.06 234.08
  A 19.07 19.07 0.0 0 0 303.13 215.01
  Z"
/>
<path fill="#ffffff" d="
  M 18.81 233.67
  C 23.56 235.88 30.00 231.58 29.82 226.51
  C 29.53 218.30 14.79 213.41 11.85 205.40
  C 9.67 199.46 12.80 193.69 18.85 192.01
  C 24.48 190.44 30.47 193.32 33.55 198.32
  Q 33.91 198.90 33.38 199.32
  L 30.82 201.36
  Q 30.30 201.77 29.87 201.27
  Q 27.46 198.48 25.64 197.12
  C 18.68 191.94 11.22 202.96 20.52 208.87
  C 27.19 213.12 36.86 221.18 34.33 229.42
  C 30.51 241.83 13.68 240.72 8.94 229.80
  Q 8.56 228.93 9.34 228.39
  L 11.47 226.94
  Q 12.26 226.40 12.67 227.26
  Q 14.87 231.84 18.81 233.67
  Z"
/>
<path fill="#ffffff" d="
  M 86.38 202.93
  L 70.18 237.18
  A 0.37 0.37 0.0 0 1 69.84 237.39
  L 65.56 237.37
  A 0.37 0.37 0.0 0 1 65.23 236.84
  L 86.38 192.07
  A 0.37 0.37 0.0 0 1 87.05 192.07
  L 107.97 236.86
  A 0.37 0.37 0.0 0 1 107.64 237.39
  L 103.52 237.37
  A 0.37 0.37 0.0 0 1 103.19 237.16
  L 87.04 202.93
  A 0.37 0.37 0.0 0 0 86.38 202.93
  Z"
/>
<path fill="#ffffff" d="
  M 144.52 204.62
  L 144.54 236.92
  A 0.46 0.46 0.0 0 1 144.06 237.38
  L 140.56 237.25
  A 0.46 0.46 0.0 0 1 140.12 236.79
  L 140.11 192.78
  A 0.46 0.46 0.0 0 1 140.92 192.48
  L 169.88 225.74
  A 0.46 0.46 0.0 0 0 170.69 225.44
  L 170.71 193.16
  A 0.46 0.46 0.0 0 1 171.17 192.70
  L 174.76 192.72
  A 0.46 0.46 0.0 0 1 175.22 193.18
  L 175.21 237.30
  A 0.46 0.46 0.0 0 1 174.40 237.61
  L 145.33 204.31
  A 0.46 0.46 0.0 0 0 144.52 204.62
  Z"
/>
<path fill="#ffffff" d="
  M 221.14 197.41
  L 221.12 236.99
  A 0.41 0.41 0.0 0 1 220.69 237.40
  L 217.15 237.27
  A 0.41 0.41 0.0 0 1 216.76 236.86
  L 216.73 197.42
  A 0.41 0.41 0.0 0 0 216.32 197.01
  L 207.09 196.99
  A 0.41 0.41 0.0 0 1 206.68 196.58
  L 206.67 193.07
  A 0.41 0.41 0.0 0 1 207.08 192.66
  L 230.72 192.73
  A 0.41 0.41 0.0 0 1 231.13 193.14
  L 231.13 196.59
  A 0.41 0.41 0.0 0 1 230.72 197.00
  L 221.55 197.00
  A 0.41 0.41 0.0 0 0 221.14 197.41
  Z"
/>
<path fill="#ffffff" d="
  M 380.60 206.61
  L 365.44 237.22
  A 0.75 0.75 0.0 0 1 364.10 237.22
  Q 356.63 222.32 349.35 207.23
  Q 348.99 206.48 348.62 206.27
  Q 348.10 205.99 348.02 206.57
  L 343.83 236.99
  Q 343.79 237.28 343.49 237.28
  L 339.78 237.28
  Q 339.52 237.28 339.56 237.03
  L 345.72 192.92
  A 0.55 0.55 0.0 0 1 346.75 192.75
  L 364.46 228.48
  A 0.39 0.38 44.8 0 0 365.15 228.48
  L 382.69 192.79
  A 0.47 0.47 0.0 0 1 383.58 192.93
  L 389.93 236.77
  Q 390.04 237.56 389.24 237.50
  L 386.10 237.24
  Q 385.50 237.20 385.41 236.59
  L 381.40 206.71
  Q 381.22 205.37 380.60 206.61
  Z"
/>
<path fill="#ffffff" d="
  M 217.31 276.42
  C 222.42 281.73 230.14 281.42 235.55 276.38
  Q 236.24 275.74 236.95 276.35
  L 237.63 276.94
  Q 238.32 277.53 237.67 278.16
  C 228.49 287.09 213.18 283.29 211.56 270.01
  C 209.77 255.34 229.44 248.58 237.83 259.45
  A 0.89 0.89 0.0 0 1 237.61 260.74
  L 237.35 260.91
  A 1.54 1.54 0.0 0 1 235.45 260.73
  C 230.58 256.11 223.22 255.56 218.13 260.03
  C 213.59 264.02 213.08 272.03 217.31 276.42
  Z"
/>
<path fill="#ffffff" d="
  M 106.16 258.22
  L 106.11 281.55
  A 0.58 0.58 0.0 0 1 105.53 282.13
  L 103.83 282.13
  A 0.58 0.58 0.0 0 1 103.25 281.55
  L 103.24 258.13
  A 0.58 0.58 0.0 0 0 102.67 257.56
  L 97.82 257.51
  A 0.58 0.58 0.0 0 1 97.25 256.99
  L 97.10 255.52
  A 0.58 0.58 0.0 0 1 97.67 254.88
  L 111.62 254.84
  A 0.58 0.58 0.0 0 1 112.20 255.46
  L 112.10 256.97
  A 0.58 0.58 0.0 0 1 111.54 257.51
  L 106.72 257.64
  A 0.58 0.58 0.0 0 0 106.16 258.22
  Z"
/>
<path fill="#ffffff" d="
  M 163.31 267.21
  Q 166.05 265.50 169.36 266.40
  A 1.15 1.15 0.0 0 1 169.10 268.66
  L 157.46 269.07
  Q 157.00 269.09 157.00 269.55
  L 157.00 278.84
  A 0.60 0.59 -90.0 0 0 157.59 279.44
  L 168.82 279.53
  A 0.96 0.96 0.0 0 1 169.76 280.31
  L 169.87 280.88
  Q 170.07 281.94 168.99 281.97
  L 154.83 282.28
  Q 154.24 282.29 154.24 281.70
  L 154.21 255.40
  A 0.63 0.63 0.0 0 1 154.85 254.77
  L 169.47 254.93
  A 0.54 0.53 90.0 0 1 170.00 255.47
  L 170.00 256.71
  Q 169.99 257.41 169.29 257.44
  L 158.05 257.86
  Q 156.99 257.90 157.00 258.95
  L 157.01 264.99
  Q 157.01 265.98 158.00 265.99
  L 161.30 266.03
  A 1.00 1.00 0.0 0 1 162.10 266.46
  L 162.50 267.04
  Q 162.82 267.51 163.31 267.21
  Z"
/>
<path fill="#ffffff" d="
  M 284.39 269.44
  L 284.13 281.74
  A 0.45 0.45 0.0 0 1 283.65 282.18
  L 282.42 282.10
  A 0.45 0.45 0.0 0 1 282.00 281.65
  L 281.80 255.21
  A 0.45 0.45 0.0 0 1 282.25 254.75
  L 283.77 254.74
  A 0.45 0.45 0.0 0 1 284.23 255.18
  L 284.41 265.80
  A 0.45 0.45 0.0 0 0 284.86 266.24
  L 298.04 266.25
  A 0.45 0.45 0.0 0 0 298.49 265.80
  L 298.41 255.22
  A 0.45 0.45 0.0 0 1 298.86 254.77
  L 300.72 254.74
  A 0.45 0.45 0.0 0 1 301.17 255.19
  L 301.17 281.70
  A 0.45 0.45 0.0 0 1 300.71 282.15
  L 298.96 282.10
  A 0.45 0.45 0.0 0 1 298.53 281.66
  L 298.40 269.45
  A 0.45 0.45 0.0 0 0 297.95 269.00
  L 284.84 269.00
  A 0.45 0.45 0.0 0 0 284.39 269.44
  Z"
/>
</svg>
